name C:/MyDriveSym/Projects/mobilecap/Data\Session20210823_0002\mocap\ForceDataProcessed\walkingTS1_forces.mot
datacolumns 19
datarows 27
range 0.00000000 0.01300000
endheader 
time	R_ground_force_vx	R_ground_force_vy	R_ground_force_vz	R_ground_force_px	R_ground_force_py	R_ground_force_pz	R_ground_torque_x	R_ground_torque_y	R_ground_torque_z	L_ground_force_vx	L_ground_force_vy	L_ground_force_vz	L_ground_force_px	L_ground_force_py	L_ground_force_pz	L_ground_torque_x	L_ground_torque_y	L_ground_torque_z	
          0.00000000	         -7.56200500	         78.38211400	          0.61915100	          0.16199200	          0.00600000	         -0.13487900	          0.00000000	          0.00649200	          0.00000000	          0.00000000	          0.00000000	          0.00000000	          0.70862300	          0.00000000	         -0.31885000	          0.00000000	          0.00000000	          0.00000000	
          0.00050000	         -7.58378400	         79.30231700	          0.55223600	          0.16199200	          0.00600000	         -0.13487900	          0.00000000	          0.00778500	          0.00000000	          0.00000000	          0.00000000	          0.00000000	          0.70862300	          0.00000000	         -0.31885000	          0.00000000	          0.00000000	          0.00000000	
          0.00100000	         -7.60778200	         80.23100600	          0.48427800	          0.16199200	          0.00600000	         -0.13487900	          0.00000000	          0.00907700	          0.00000000	          0.00000000	          0.00000000	          0.00000000	          0.70862300	          0.00000000	         -0.31885000	          0.00000000	          0.00000000	          0.00000000	
          0.00150000	         -7.63403200	         81.16818400	          0.41526700	          0.16199200	          0.00600000	         -0.13487900	          0.00000000	          0.01036700	          0.00000000	          0.00000000	          0.00000000	          0.00000000	          0.70862300	          0.00000000	         -0.31885000	          0.00000000	          0.00000000	          0.00000000	
          0.00200000	         -7.66257000	         82.11385600	          0.34519700	          0.16234800	          0.00600000	         -0.13479700	          0.00000000	          0.01165200	          0.00000000	          0.00000000	          0.00000000	          0.00000000	          0.70862300	          0.00000000	         -0.31885000	          0.00000000	          0.00000000	          0.00000000	
          0.00250000	         -7.69342900	         83.06802300	          0.27406000	          0.16270300	          0.00600000	         -0.13471600	          0.00000000	          0.01293400	          0.00000000	          0.00000000	          0.00000000	          0.00000000	          0.70862300	          0.00000000	         -0.31885000	          0.00000000	          0.00000000	          0.00000000	
          0.00300000	         -7.72664300	         84.03068700	          0.20184900	          0.16305700	          0.00600000	         -0.13463600	          0.00000000	          0.01421100	          0.00000000	          0.00000000	          0.00000000	          0.00000000	          0.70862300	          0.00000000	         -0.31885000	          0.00000000	          0.00000000	          0.00000000	
          0.00350000	         -7.76224600	         85.00184800	          0.12855700	          0.16341100	          0.00600000	         -0.13455600	          0.00000000	          0.01548200	          0.00000000	          0.00000000	          0.00000000	          0.00000000	          0.70862300	          0.00000000	         -0.31885000	          0.00000000	          0.00000000	          0.00000000	
          0.00400000	         -7.80027100	         85.98150400	          0.05417600	          0.16376500	          0.00600000	         -0.13447800	          0.00000000	          0.01674700	          0.00000000	          0.00000000	          0.00000000	          0.00000000	          0.70862300	          0.00000000	         -0.31885000	          0.00000000	          0.00000000	          0.00000000	
          0.00450000	         -7.84075100	         86.96965500	         -0.02130000	          0.16411800	          0.00600000	         -0.13440000	          0.00000000	          0.01800400	          0.00000000	          0.00000000	          0.00000000	          0.00000000	          0.70862300	          0.00000000	         -0.31885000	          0.00000000	          0.00000000	          0.00000000	
          0.00500000	         -7.88371700	         87.96629600	         -0.09787800	          0.16447000	          0.00600000	         -0.13432400	          0.00000000	          0.01925400	          0.00000000	          0.00000000	          0.00000000	          0.00000000	          0.70862300	          0.00000000	         -0.31885000	          0.00000000	          0.00000000	          0.00000000	
          0.00550000	         -7.92920200	         88.97142300	         -0.17556400	          0.16482200	          0.00600000	         -0.13424800	          0.00000000	          0.02049500	          0.00000000	          0.00000000	          0.00000000	          0.00000000	          0.70862300	          0.00000000	         -0.31885000	          0.00000000	          0.00000000	          0.00000000	
          0.00600000	         -7.97723500	         89.98503100	         -0.25436500	          0.16517400	          0.00600000	         -0.13417200	          0.00000000	          0.02172800	          0.00000000	          0.00000000	          0.00000000	          0.00000000	          0.70862300	          0.00000000	         -0.31885000	          0.00000000	          0.00000000	          0.00000000	
          0.00650000	         -8.02784900	         91.00711500	         -0.33428800	          0.16552500	          0.00600000	         -0.13409800	          0.00000000	          0.02295000	          0.00000000	          0.00000000	          0.00000000	          0.00000000	          0.70862300	          0.00000000	         -0.31885000	          0.00000000	          0.00000000	          0.00000000	
          0.00700000	         -8.08107200	         92.03766700	         -0.41533800	          0.16587500	          0.00600000	         -0.13402500	          0.00000000	          0.02416200	          0.00000000	          0.00000000	          0.00000000	          0.00000000	          0.70862300	          0.00000000	         -0.31885000	          0.00000000	          0.00000000	          0.00000000	
          0.00750000	         -8.13693300	         93.07668000	         -0.49752100	          0.16622500	          0.00600000	         -0.13395200	          0.00000000	          0.02536300	          0.00000000	          0.00000000	          0.00000000	          0.00000000	          0.70862300	          0.00000000	         -0.31885000	          0.00000000	          0.00000000	          0.00000000	
          0.00800000	         -8.19546100	         94.12414600	         -0.58084300	          0.16657500	          0.00600000	         -0.13388000	          0.00000000	          0.02655300	          0.00000000	          0.00000000	          0.00000000	          0.00000000	          0.70862300	          0.00000000	         -0.31885000	          0.00000000	          0.00000000	          0.00000000	
          0.00850000	         -8.25668300	         95.18005600	         -0.66530900	          0.16692300	          0.00600000	         -0.13380800	          0.00000000	          0.02773000	          0.00000000	          0.00000000	          0.00000000	          0.00000000	          0.70862300	          0.00000000	         -0.31885000	          0.00000000	          0.00000000	          0.00000000	
          0.00900000	         -8.32062600	         96.24440300	         -0.75092600	          0.16727200	          0.00600000	         -0.13373800	          0.00000000	          0.02889500	          0.00000000	          0.00000000	          0.00000000	          0.00000000	          0.70862300	          0.00000000	         -0.31885000	          0.00000000	          0.00000000	          0.00000000	
          0.00950000	         -8.38731700	         97.31717600	         -0.83769900	          0.16761900	          0.00600000	         -0.13366800	          0.00000000	          0.03004600	          0.00000000	          0.00000000	          0.00000000	          0.00000000	          0.70862300	          0.00000000	         -0.31885000	          0.00000000	          0.00000000	          0.00000000	
          0.01000000	         -8.45678100	         98.39836500	         -0.92563200	          0.16796600	          0.00600000	         -0.13359900	          0.00000000	          0.03118300	          0.00000000	          0.00000000	          0.00000000	          0.00000000	          0.70862300	          0.00000000	         -0.31885000	          0.00000000	          0.00000000	          0.00000000	
          0.01050000	         -8.52904100	         99.48796200	         -1.01473000	          0.16831300	          0.00600000	         -0.13353100	          0.00000000	          0.03230700	          0.00000000	          0.00000000	          0.00000000	          0.00000000	          0.70862300	          0.00000000	         -0.31885000	          0.00000000	          0.00000000	          0.00000000	
          0.01100000	         -8.60412200	        100.58595500	         -1.10500000	          0.16865900	          0.00600000	         -0.13346300	          0.00000000	          0.03341500	          0.00000000	          0.00000000	          0.00000000	          0.00000000	          0.70862300	          0.00000000	         -0.31885000	          0.00000000	          0.00000000	          0.00000000	
          0.01150000	         -8.68204700	        101.69233400	         -1.19644400	          0.16900400	          0.00600000	         -0.13339600	          0.00000000	          0.03450700	          0.00000000	          0.00000000	          0.00000000	          0.00000000	          0.70862300	          0.00000000	         -0.31885000	          0.00000000	          0.00000000	          0.00000000	
          0.01200000	         -8.76283700	        102.80708800	         -1.28906900	          0.16934900	          0.00600000	         -0.13333000	          0.00000000	          0.03558400	          0.00000000	          0.00000000	          0.00000000	          0.00000000	          0.70862300	          0.00000000	         -0.31885000	          0.00000000	          0.00000000	          0.00000000	
          0.01250000	         -8.84651400	        103.93020700	         -1.38287800	          0.16969400	          0.00600000	         -0.13326500	          0.00000000	          0.03664500	          0.00000000	          0.00000000	          0.00000000	          0.00000000	          0.70862300	          0.00000000	         -0.31885000	          0.00000000	          0.00000000	          0.00000000	
          0.01300000	         -8.93309700	        105.06168100	         -1.47787500	          0.17003700	          0.00600000	         -0.13320000	          0.00000000	          0.03768900	          0.00000000	          0.00000000	          0.00000000	          0.00000000	          0.70862300	          0.00000000	         -0.31885000	          0.00000000	          0.00000000	          0.00000000	
